HIERARCHY
ROOT mixamorig:Hips
{
	OFFSET 0.000000 35.069874 -0.029489
	CHANNELS 6 Xposition Yposition Zposition Xrotation Yrotation Zrotation
	JOINT mixamorig:Spine
	{
		OFFSET 0.000000 6.876060 0.125662
		CHANNELS 3 Xrotation Yrotation Zrotation
		JOINT mixamorig:Spine1
		{
			OFFSET 0.000000 8.022060 0.146603
			CHANNELS 3 Xrotation Yrotation Zrotation
			JOINT mixamorig:Spine2
			{
				OFFSET 0.000000 9.168079 0.167547
				CHANNELS 3 Xrotation Yrotation Zrotation
				JOINT mixamorig:Neck
				{
					OFFSET 0.000000 10.314075 0.188489
					CHANNELS 3 Xrotation Yrotation Zrotation
					JOINT mixamorig:Head
					{
						OFFSET 0.000000 7.643753 -2.377445
						CHANNELS 3 Xrotation Yrotation Zrotation
						JOINT mixamorig:HeadTop_End
						{
							OFFSET 0.000000 43.788605 -13.619637
							CHANNELS 3 Xrotation Yrotation Zrotation
							End Site
							{
								OFFSET 0.000000 45.857788 0.000000
							}
						}
					}
				}
				JOINT mixamorig:LeftShoulder
				{
					OFFSET 4.392187 8.825001 0.174995
					CHANNELS 3 Xrotation Yrotation Zrotation
					JOINT mixamorig:LeftArm
					{
						OFFSET 8.774866 -2.970879 -0.026997
						CHANNELS 3 Xrotation Yrotation Zrotation
						JOINT mixamorig:LeftForeArm
						{
							OFFSET 8.450586 -0.797432 -0.648343
							CHANNELS 3 Xrotation Yrotation Zrotation
							JOINT mixamorig:LeftHand
							{
								OFFSET 18.458662 0.962311 0.193148
								CHANNELS 3 Xrotation Yrotation Zrotation
								JOINT mixamorig:LeftHandThumb1
								{
									OFFSET 2.379990 -1.333382 2.680594
									CHANNELS 3 Xrotation Yrotation Zrotation
									JOINT mixamorig:LeftHandThumb2
									{
										OFFSET 1.903984 -1.066746 2.144473
										CHANNELS 3 Xrotation Yrotation Zrotation
										JOINT mixamorig:LeftHandThumb3
										{
											OFFSET 0.966393 -1.489639 2.964555
											CHANNELS 3 Xrotation Yrotation Zrotation
											JOINT mixamorig:LeftHandThumb4
											{
												OFFSET 1.205181 -0.823021 1.625701
												CHANNELS 3 Xrotation Yrotation Zrotation
												End Site
												{
													OFFSET 1.050617 -0.818157 1.731923
												}
											}
										}
									}
								}
								JOINT mixamorig:LeftHandIndex1
								{
									OFFSET 7.830624 -0.787468 2.563931
									CHANNELS 3 Xrotation Yrotation Zrotation
									JOINT mixamorig:LeftHandIndex2
									{
										OFFSET 3.312897 -0.052605 1.515312
										CHANNELS 3 Xrotation Yrotation Zrotation
										JOINT mixamorig:LeftHandIndex3
										{
											OFFSET 3.460667 -0.207008 1.581951
											CHANNELS 3 Xrotation Yrotation Zrotation
											JOINT mixamorig:LeftHandIndex4
											{
												OFFSET 2.183182 0.110458 0.999585
												CHANNELS 3 Xrotation Yrotation Zrotation
												End Site
												{
													OFFSET 2.183868 0.110451 0.998074
												}
											}
										}
									}
								}
								JOINT mixamorig:LeftHandMiddle1
								{
									OFFSET 8.556145 -0.261200 0.258753
									CHANNELS 3 Xrotation Yrotation Zrotation
									JOINT mixamorig:LeftHandMiddle2
									{
										OFFSET 3.828903 -0.489014 -0.111505
										CHANNELS 3 Xrotation Yrotation Zrotation
										JOINT mixamorig:LeftHandMiddle3
										{
											OFFSET 3.696209 -0.166595 -0.107596
											CHANNELS 3 Xrotation Yrotation Zrotation
											JOINT mixamorig:LeftHandMiddle4
											{
												OFFSET 2.259281 0.534500 -0.065675
												CHANNELS 3 Xrotation Yrotation Zrotation
												End Site
												{
													OFFSET 2.259735 0.534134 -0.051267
												}
											}
										}
									}
								}
								JOINT mixamorig:LeftHandRing1
								{
									OFFSET 8.509293 -0.556679 -3.044941
									CHANNELS 3 Xrotation Yrotation Zrotation
									JOINT mixamorig:LeftHandRing2
									{
										OFFSET 2.995171 -0.303261 -0.843591
										CHANNELS 3 Xrotation Yrotation Zrotation
										JOINT mixamorig:LeftHandRing3
										{
											OFFSET 2.968273 -0.101997 -0.834287
											CHANNELS 3 Xrotation Yrotation Zrotation
											JOINT mixamorig:LeftHandRing4
											{
												OFFSET 1.521358 -0.461468 -0.418735
												CHANNELS 3 Xrotation Yrotation Zrotation
												End Site
												{
													OFFSET 1.516514 -0.460747 -0.436712
												}
											}
										}
									}
								}
							}
						}
					}
				}
				JOINT mixamorig:RightShoulder
				{
					OFFSET -4.392150 8.825024 0.141388
					CHANNELS 3 Xrotation Yrotation Zrotation
					JOINT mixamorig:RightArm
					{
						OFFSET -8.774886 -2.970947 -0.094209
						CHANNELS 3 Xrotation Yrotation Zrotation
						JOINT mixamorig:RightForeArm
						{
							OFFSET -8.450586 -0.797386 -0.330665
							CHANNELS 3 Xrotation Yrotation Zrotation
							JOINT mixamorig:RightHand
							{
								OFFSET -18.458664 0.962341 0.025780
								CHANNELS 3 Xrotation Yrotation Zrotation
								JOINT mixamorig:RightHandThumb1
								{
									OFFSET -2.390282 -1.240040 2.604684
									CHANNELS 3 Xrotation Yrotation Zrotation
									JOINT mixamorig:RightHandThumb2
									{
										OFFSET -1.912228 -0.992111 2.083740
										CHANNELS 3 Xrotation Yrotation Zrotation
										JOINT mixamorig:RightHandThumb3
										{
											OFFSET -0.876358 -1.555370 2.930126
											CHANNELS 3 Xrotation Yrotation Zrotation
											JOINT mixamorig:RightHandThumb4
											{
												OFFSET -1.227077 -0.755932 1.835223
												CHANNELS 3 Xrotation Yrotation Zrotation
												End Site
												{
													OFFSET -1.124962 -0.750702 1.901603
												}
											}
										}
									}
								}
								JOINT mixamorig:RightHandIndex1
								{
									OFFSET -8.716801 -0.633743 3.098187
									CHANNELS 3 Xrotation Yrotation Zrotation
									JOINT mixamorig:RightHandIndex2
									{
										OFFSET -3.319706 -0.240585 1.198087
										CHANNELS 3 Xrotation Yrotation Zrotation
										JOINT mixamorig:RightHandIndex3
										{
											OFFSET -3.153255 -0.154724 1.138827
											CHANNELS 3 Xrotation Yrotation Zrotation
											JOINT mixamorig:RightHandIndex4
											{
												OFFSET -1.818684 -0.003197 0.655154
												CHANNELS 3 Xrotation Yrotation Zrotation
												End Site
												{
													OFFSET -1.818668 -0.003197 0.655188
												}
											}
										}
									}
								}
								JOINT mixamorig:RightHandMiddle1
								{
									OFFSET -8.158691 -0.528496 0.196552
									CHANNELS 3 Xrotation Yrotation Zrotation
									JOINT mixamorig:RightHandMiddle2
									{
										OFFSET -3.890194 -0.261169 -0.136423
										CHANNELS 3 Xrotation Yrotation Zrotation
										JOINT mixamorig:RightHandMiddle3
										{
											OFFSET -3.903057 -0.179909 -0.137173
											CHANNELS 3 Xrotation Yrotation Zrotation
											JOINT mixamorig:RightHandMiddle4
											{
												OFFSET -2.366261 0.198380 -0.083987
												CHANNELS 3 Xrotation Yrotation Zrotation
												End Site
												{
													OFFSET -2.366409 0.198326 -0.079799
												}
											}
										}
									}
								}
								JOINT mixamorig:RightHandRing1
								{
									OFFSET -7.616104 -0.395126 -2.681268
									CHANNELS 3 Xrotation Yrotation Zrotation
									JOINT mixamorig:RightHandRing2
									{
										OFFSET -3.235790 -0.462120 -1.101476
										CHANNELS 3 Xrotation Yrotation Zrotation
										JOINT mixamorig:RightHandRing3
										{
											OFFSET -3.179264 -0.138618 -1.084847
											CHANNELS 3 Xrotation Yrotation Zrotation
											JOINT mixamorig:RightHandRing4
											{
												OFFSET -1.963291 -0.101624 -0.668250
												CHANNELS 3 Xrotation Yrotation Zrotation
												End Site
												{
													OFFSET -1.963745 -0.101669 -0.666919
												}
											}
										}
									}
								}
							}
						}
					}
				}
			}
		}
	}
	JOINT mixamorig:LeftUpLeg
	{
		OFFSET 10.205382 -3.823519 0.155145
		CHANNELS 3 Xrotation Yrotation Zrotation
		JOINT mixamorig:LeftLeg
		{
			OFFSET 0.283732 -12.998343 0.567794
			CHANNELS 3 Xrotation Yrotation Zrotation
			JOINT mixamorig:LeftFoot
			{
				OFFSET -1.058953 -10.688869 -2.184322
				CHANNELS 3 Xrotation Yrotation Zrotation
				JOINT mixamorig:LeftToeBase
				{
					OFFSET 0.108145 -7.191069 7.560211
					CHANNELS 3 Xrotation Yrotation Zrotation
					JOINT mixamorig:LeftToe_End
					{
						OFFSET 0.070226 0.081726 4.490266
						CHANNELS 3 Xrotation Yrotation Zrotation
						End Site
						{
							OFFSET 0.070226 0.081726 4.490267
						}
					}
				}
			}
		}
	}
	JOINT mixamorig:RightUpLeg
	{
		OFFSET -10.205383 -3.823513 0.005508
		CHANNELS 3 Xrotation Yrotation Zrotation
		JOINT mixamorig:RightLeg
		{
			OFFSET -0.283728 -12.998341 0.610627
			CHANNELS 3 Xrotation Yrotation Zrotation
			JOINT mixamorig:RightFoot
			{
				OFFSET 1.058956 -10.688892 -1.945833
				CHANNELS 3 Xrotation Yrotation Zrotation
				JOINT mixamorig:RightToeBase
				{
					OFFSET -0.108150 -7.191040 7.372945
					CHANNELS 3 Xrotation Yrotation Zrotation
					JOINT mixamorig:RightToe_End
					{
						OFFSET -0.070229 0.081738 4.479398
						CHANNELS 3 Xrotation Yrotation Zrotation
						End Site
						{
							OFFSET -0.070229 0.081738 4.479399
						}
					}
				}
			}
		}
	}
}
MOTION
Frames: 7
Frame Time: 0.016667
-0.110065 34.305546 3.379598 -3.237403 -2.261420 8.082492 0.206697 2.886779 1.160327 1.273408 6.010154 -8.438823 1.178869 5.988975 -8.462492 -2.089080 -0.218354 2.592319 4.463389 0.897849 13.059644 -0.000000 0.000002 0.000001 0.236572 6.179441 -7.356833 2.827557 -40.189489 28.007974 -0.272306 0.047234 -8.358718 -4.731570 -22.974108 9.414150 8.214607 18.317391 1.845419 1.111046 27.862097 11.541954 -2.289512 -13.278989 -6.237950 0.000002 -0.000003 -0.000000 0.928502 22.828367 -0.980668 -0.950588 -0.030981 2.078543 2.310189 -0.093930 -5.054143 -0.000001 0.000003 -0.000000 -0.106754 -3.387101 5.542592 -0.136513 0.009233 -4.709217 -0.455805 0.066376 -15.878033 -0.000000 0.000006 -0.000000 -0.048572 -17.392187 3.964595 -0.990842 0.060740 -3.533866 3.833912 0.767652 13.845966 0.000002 0.000007 -0.000000 0.129070 -7.697585 5.818711 3.917300 16.424303 63.186531 107.277827 95.690172 -104.326516 -3.108117 -1.066495 8.999972 9.509194 -17.047877 0.199756 -0.386887 -30.116828 -13.748944 1.603847 14.152289 7.697680 -0.000003 0.000001 0.000006 1.152348 -18.385300 -0.237566 0.427891 -0.008581 1.182702 0.797200 0.085897 2.218769 0.000002 0.000002 -0.000000 -0.218090 3.374338 -0.127893 -0.042373 0.003728 1.199113 -0.262362 0.003301 7.422944 -0.000001 -0.000001 0.000002 -0.670341 20.000507 -4.200346 -1.724801 -0.033895 5.050229 0.144664 -0.044674 -0.418774 0.000000 -0.000001 0.000000 -17.595640 4.843717 -10.964869 38.292052 3.753089 -1.241968 16.832455 0.292386 6.951421 -34.883904 -0.000068 -0.000017 -0.000000 -0.000000 0.000000 -57.587394 0.557587 3.548636 82.491589 -14.535833 -3.163845 43.409284 -7.909479 -24.221458 -0.465200 -0.004510 0.553803 -0.000002 0.000000 0.000000 
-0.277466 34.215057 3.669315 -3.965135 1.886517 8.547398 0.509565 2.310748 0.740778 1.518212 4.370905 -8.454256 1.451854 4.378020 -8.459704 -2.004292 -0.281840 2.576139 4.243173 0.468477 13.271432 -0.000000 0.000000 0.000000 0.262249 6.486969 -8.132412 -1.576595 -45.246571 23.604651 -0.415558 -1.475015 -8.362017 -5.772620 -25.271802 11.015849 8.214606 18.317394 1.845423 1.111045 27.862100 11.541953 -2.289511 -13.278984 -6.237948 0.000001 0.000001 -0.000001 0.928498 22.828369 -0.980663 -0.950589 -0.030990 2.078545 2.310187 -0.093937 -5.054147 0.000001 0.000005 0.000001 -0.106753 -3.387093 5.542595 -0.136513 0.009233 -4.709217 -0.455804 0.066375 -15.878033 -0.000001 0.000005 -0.000003 -0.048578 -17.392194 3.964597 -0.990842 0.060738 -3.533864 3.833910 0.767648 13.845970 0.000003 0.000005 0.000003 0.128580 -7.293016 5.513865 9.536512 16.726980 60.799537 138.433154 98.173731 -135.275489 0.556672 -3.251834 9.087659 9.509199 -17.047876 0.199757 -0.386885 -30.116831 -13.748950 1.603850 14.152295 7.697680 -0.000001 0.000000 -0.000005 1.152352 -18.385300 -0.237573 0.427888 -0.008577 1.182698 0.797198 0.085901 2.218773 0.000001 0.000001 -0.000004 -0.218087 3.374339 -0.127891 -0.042371 0.003729 1.199113 -0.262367 0.003303 7.422949 0.000003 0.000002 -0.000000 -0.670339 20.000503 -4.200348 -1.724798 -0.033897 5.050227 0.144671 -0.044672 -0.418772 -0.000002 -0.000001 0.000002 -16.995845 5.462356 -11.257175 39.670565 4.047886 -1.054961 15.441652 0.387769 8.686767 -35.781070 -0.000064 -0.000021 0.000000 -0.000001 0.000001 -56.703349 1.933314 2.359629 77.170756 -13.850024 -2.909011 41.495561 -7.410856 -24.506022 -8.932989 -1.679904 10.465199 -0.000002 0.000001 0.000000 
-0.436255 34.100422 3.992367 -4.703489 6.334263 9.002114 0.731703 1.649592 0.219160 1.648576 2.650186 -8.357548 1.612354 2.676828 -8.355563 -1.893766 -0.354430 2.594131 4.143769 0.068239 13.391174 -0.000000 0.000001 0.000000 0.282901 6.718971 -8.733058 -6.271467 -49.780591 17.751342 -0.594850 -3.376632 -8.371526 -5.689749 -26.968367 12.978568 8.214613 18.317396 1.845418 1.111045 27.862100 11.541956 -2.289512 -13.278986 -6.237949 -0.000000 -0.000003 -0.000001 0.928504 22.828365 -0.980668 -0.950589 -0.030985 2.078545 2.310184 -0.093937 -5.054146 -0.000001 0.000005 0.000001 -0.106755 -3.387095 5.542589 -0.136511 0.009235 -4.709216 -0.455808 0.066368 -15.878038 0.000001 -0.000001 -0.000001 -0.048571 -17.392185 3.964594 -0.990839 0.060741 -3.533862 3.833910 0.767653 13.845969 0.000003 0.000003 -0.000007 0.126207 -7.022527 5.275907 14.556441 16.490382 58.064155 153.693996 102.158374 -150.312274 4.274954 -5.400477 9.852632 9.509193 -17.047874 0.199756 -0.386888 -30.116821 -13.748950 1.603853 14.152294 7.697679 0.000003 -0.000001 -0.000000 1.152349 -18.385300 -0.237566 0.427889 -0.008574 1.182701 0.797200 0.085892 2.218774 0.000003 -0.000001 -0.000002 -0.218093 3.374338 -0.127888 -0.042372 0.003729 1.199106 -0.262367 0.003303 7.422947 -0.000001 -0.000001 -0.000000 -0.670337 20.000500 -4.200346 -1.724796 -0.033900 5.050226 0.144668 -0.044670 -0.418772 0.000001 -0.000001 0.000003 -16.712308 6.014364 -11.395185 41.514682 4.364726 -0.871611 13.870985 0.483064 10.467618 -36.815836 -0.000064 -0.000021 -0.000000 -0.000001 -0.000000 -55.013670 2.868488 0.529063 71.248162 -13.021985 -2.634668 39.326846 -6.801189 -25.010305 -15.754834 -5.644463 19.263970 0.000005 0.000001 0.000000 
-0.582151 33.964001 4.353492 -5.416065 11.051393 9.429330 0.847027 0.907632 -0.349423 1.641336 0.892559 -8.172392 1.631395 0.927846 -8.170853 -1.759200 -0.447407 2.664845 4.164842 -0.328337 13.413235 -0.000000 0.000000 -0.000001 0.298817 6.850864 -9.138298 -11.656892 -53.729297 10.331986 -0.825917 -5.814657 -8.392461 -4.525476 -27.609641 15.559489 8.214608 18.317393 1.845423 1.111046 27.862100 11.541952 -2.289511 -13.278985 -6.237946 -0.000001 0.000001 -0.000001 0.928499 22.828376 -0.980658 -0.950588 -0.030990 2.078544 2.310186 -0.093935 -5.054148 -0.000001 -0.000000 0.000000 -0.106754 -3.387089 5.542595 -0.136512 0.009238 -4.709217 -0.455804 0.066371 -15.878037 -0.000001 -0.000000 -0.000003 -0.048576 -17.392189 3.964598 -0.990842 0.060738 -3.533864 3.833910 0.767653 13.845970 0.000002 0.000002 0.000001 0.120581 -6.868813 5.077474 19.247608 16.032722 54.984549 161.817823 107.048605 -158.185801 7.360716 -6.019642 10.601867 9.509199 -17.047876 0.199756 -0.386890 -30.116824 -13.748949 1.603853 14.152284 7.697680 -0.000003 0.000002 0.000002 1.152349 -18.385298 -0.237572 0.427885 -0.008581 1.182703 0.797196 0.085903 2.218773 0.000003 -0.000001 0.000003 -0.218093 3.374338 -0.127889 -0.042371 0.003734 1.199111 -0.262369 0.003302 7.422944 0.000001 -0.000000 -0.000003 -0.670341 20.000503 -4.200349 -1.724800 -0.033900 5.050226 0.144667 -0.044672 -0.418770 -0.000001 -0.000001 0.000002 -16.771229 6.548049 -11.456193 43.807997 4.758935 -0.516018 12.075412 0.571491 12.275440 -37.939662 -0.000071 -0.000021 -0.000000 -0.000001 -0.000000 -52.819301 3.499458 -1.559970 65.122186 -11.743154 -2.358875 37.405965 -6.488301 -25.276464 -18.463378 -8.207867 23.249826 -0.000000 0.000000 -0.000000 
-0.709235 33.806908 4.749960 -6.073515 15.959965 9.819502 0.852720 0.108018 -0.937285 1.500200 -0.850521 -7.921525 1.509017 -0.816170 -7.923864 -1.612474 -0.570846 2.793788 4.271952 -0.761839 13.323636 0.000000 0.000000 0.000000 0.311131 6.877824 -9.363236 -18.256426 -56.982158 1.101480 -1.131815 -9.006906 -8.435121 -2.537367 -27.018384 18.764589 8.214607 18.317389 1.845421 1.111046 27.862097 11.541956 -2.289512 -13.278984 -6.237946 0.000001 -0.000003 -0.000000 0.928501 22.828365 -0.980663 -0.950592 -0.030983 2.078545 2.310187 -0.093937 -5.054144 0.000001 -0.000000 -0.000001 -0.106756 -3.387093 5.542595 -0.136513 0.009234 -4.709214 -0.455805 0.066371 -15.878037 0.000001 -0.000000 -0.000001 -0.048578 -17.392194 3.964597 -0.990840 0.060741 -3.533863 3.833909 0.767655 13.845971 0.000001 0.000004 -0.000006 0.111125 -6.805026 4.893120 25.355498 17.316218 51.525328 166.515217 112.361857 -162.617570 9.012352 -4.701750 10.622842 9.509203 -17.047870 0.199756 -0.386891 -30.116824 -13.748944 1.603850 14.152291 7.697683 0.000002 0.000003 -0.000002 1.152349 -18.385298 -0.237570 0.427896 -0.008583 1.182699 0.797200 0.085899 2.218769 0.000003 0.000001 -0.000001 -0.218088 3.374340 -0.127891 -0.042369 0.003735 1.199107 -0.262372 0.003303 7.422944 -0.000008 -0.000001 -0.000000 -0.670338 20.000508 -4.200348 -1.724797 -0.033890 5.050229 0.144668 -0.044670 -0.418777 -0.000002 0.000003 0.000004 -17.153609 7.080093 -11.410164 46.463981 5.318369 -0.062943 10.075519 0.629252 14.170242 -39.124584 -0.000073 -0.000026 -0.000000 -0.000001 0.000000 -50.397360 4.232465 -3.593927 59.394089 -10.733266 -2.092971 35.878338 -6.049204 -25.226884 -19.976884 -9.297153 24.547135 -0.000001 -0.000000 0.000000 
-0.817506 33.648865 5.158619 -6.659610 20.951165 10.116083 0.768920 -0.704159 -1.478703 1.258121 -2.533266 -7.628114 1.277110 -2.505948 -7.633865 -1.478304 -0.732943 2.978043 4.400416 -1.278155 13.119253 -0.000000 0.000000 0.000000 0.321274 6.808516 -9.441299 -26.485496 -59.305576 -10.123721 -1.533079 -13.104602 -8.516229 -0.099179 -25.418861 22.304005 8.214609 18.317391 1.845418 1.111046 27.862097 11.541956 -2.289511 -13.278986 -6.237950 0.000003 -0.000002 0.000001 0.928504 22.828367 -0.980670 -0.950589 -0.030983 2.078544 2.310186 -0.093937 -5.054147 0.000002 -0.000000 -0.000002 -0.106754 -3.387094 5.542593 -0.136515 0.009235 -4.709218 -0.455807 0.066375 -15.878038 -0.000001 -0.000001 -0.000001 -0.048574 -17.392192 3.964591 -0.990838 0.060738 -3.533864 3.833909 0.767654 13.845966 -0.000000 0.000006 -0.000007 0.098052 -6.812589 4.713079 31.122611 17.838508 48.043800 169.663074 118.202639 -165.472534 9.787142 -1.976811 9.840313 9.509199 -17.047874 0.199757 -0.386888 -30.116818 -13.748945 1.603851 14.152292 7.697681 0.000003 -0.000001 0.000001 1.152355 -18.385305 -0.237566 0.427886 -0.008581 1.182700 0.797197 0.085901 2.218772 0.000001 -0.000001 -0.000002 -0.218089 3.374337 -0.127889 -0.042370 0.003729 1.199117 -0.262368 0.003303 7.422940 -0.000000 -0.000003 0.000001 -0.670344 20.000503 -4.200344 -1.724799 -0.033895 5.050233 0.144667 -0.044668 -0.418772 0.000000 -0.000004 0.000002 -17.830711 7.584333 -11.173301 49.285429 6.140512 0.399878 8.024722 0.638224 16.127362 -40.356603 -0.000075 -0.000031 0.000000 0.000000 -0.000000 -49.737933 5.430464 -5.011264 58.745125 -10.857001 -2.253776 29.892552 -5.347166 -23.673374 -20.155016 -4.432897 16.605225 -0.000001 -0.000001 0.000001 
-0.907633 33.503239 5.553068 -7.181415 25.929918 10.289870 0.632709 -1.493602 -1.930880 0.968658 -4.126461 -7.318838 0.990315 -4.108530 -7.325380 -1.387896 -0.936668 3.208381 4.473155 -1.911245 12.823602 0.000000 -0.000001 -0.000000 0.330464 6.663171 -9.415605 -36.274339 -60.354816 -23.084581 -2.039303 -18.077446 -8.657382 2.508866 -23.427375 25.660886 8.214609 18.317393 1.845424 1.111048 27.862099 11.541958 -2.289514 -13.278987 -6.237949 -0.000002 0.000001 -0.000002 0.928503 22.828371 -0.980666 -0.950589 -0.030983 2.078544 2.310183 -0.093938 -5.054147 0.000001 0.000002 0.000001 -0.106754 -3.387094 5.542593 -0.136510 0.009233 -4.709212 -0.455805 0.066372 -15.878037 -0.000001 0.000001 -0.000001 -0.048573 -17.392192 3.964594 -0.990839 0.060740 -3.533864 3.833910 0.767655 13.845973 0.000002 0.000002 -0.000004 0.082093 -6.887449 4.546055 36.274752 17.575294 44.890711 171.843297 124.240827 -167.344525 10.415124 1.197794 8.595676 9.509196 -17.047874 0.199756 -0.386891 -30.116824 -13.748949 1.603849 14.152289 7.697680 0.000002 -0.000005 -0.000000 1.152349 -18.385305 -0.237572 0.427892 -0.008579 1.182699 0.797200 0.085904 2.218771 -0.000000 0.000001 0.000001 -0.218089 3.374337 -0.127890 -0.042370 0.003730 1.199114 -0.262366 0.003300 7.422945 -0.000001 -0.000001 0.000003 -0.670340 20.000501 -4.200346 -1.724798 -0.033898 5.050226 0.144665 -0.044670 -0.418777 0.000000 -0.000002 0.000002 -18.773813 8.038882 -10.732852 52.104136 7.278046 0.858272 6.080322 0.601682 18.035697 -41.598775 -0.000069 -0.000032 0.000000 -0.000000 0.000000 -48.440275 7.155744 -6.078120 58.343544 -11.338848 -2.246686 25.008635 -4.744501 -21.398279 -19.912865 -1.943631 10.910067 -0.000001 -0.000001 0.000002 
